<?xml version="1.0" standalone="no"?>
<!DOCTYPE svg PUBLIC "-//W3C//DTD SVG 20010904//EN"
 "http://www.w3.org/TR/2001/REC-SVG-20010904/DTD/svg10.dtd">
<svg version="1.0" xmlns="http://www.w3.org/2000/svg"
 width="1000.000000pt" height="1375.000000pt" viewBox="0 0 1000.000000 1375.000000"
 preserveAspectRatio="xMidYMid meet">
<metadata>
Created by potrace 1.16, written by Peter Selinger 2001-2019
</metadata>
<g transform="translate(0.000000,1375.000000) scale(0.100000,-0.100000)"
fill="#000000" stroke="none">
<path d="M2653 13697 c-77 -81 -89 -144 -43 -224 11 -18 62 -86 115 -152 l96
-119 -71 -249 c-40 -136 -73 -264 -75 -283 -6 -67 -656 -2503 -672 -2519 -25
-24 -40 -70 -58 -167 -29 -166 -47 -228 -70 -246 -27 -21 -36 -44 -70 -165
-30 -111 -32 -166 -5 -218 12 -22 23 -63 25 -92 5 -65 27 -108 68 -134 26 -16
45 -19 99 -17 57 3 72 8 96 31 15 15 36 27 47 27 10 0 26 6 34 14 16 13 110
34 278 61 108 18 259 60 406 116 149 55 170 67 254 137 39 33 92 74 117 91 59
41 82 87 89 181 8 102 37 194 63 199 10 2 30 17 44 33 l25 30 65 -69 c36 -38
85 -94 110 -125 25 -31 52 -58 60 -61 27 -7 71 -83 110 -189 86 -232 159 -375
222 -434 18 -17 59 -46 91 -63 31 -18 57 -37 57 -42 0 -5 -33 -60 -74 -123
-67 -102 -78 -115 -108 -120 -18 -3 -69 -10 -113 -16 -44 -7 -95 -18 -112 -26
-29 -11 -33 -18 -33 -49 0 -61 27 -105 79 -128 25 -11 47 -21 49 -22 2 -2 -52
-90 -120 -197 -152 -240 -210 -355 -244 -483 -18 -71 -39 -123 -73 -180 -58
-96 -71 -133 -71 -195 0 -40 -14 -76 -80 -209 -44 -89 -80 -164 -80 -166 0 -2
31 7 69 20 l69 23 -15 -36 c-22 -52 -22 -149 1 -191 10 -19 39 -56 64 -83 48
-52 177 -138 206 -138 10 0 16 -4 14 -8 -18 -45 -686 -1266 -812 -1483 l-164
-284 -158 -7 c-258 -10 -333 -28 -355 -85 -14 -37 -1 -110 25 -138 35 -39 272
-105 463 -129 216 -28 434 -47 468 -40 18 3 43 17 55 29 19 21 22 32 18 79 -3
36 -12 63 -24 77 -16 18 -186 105 -311 160 l-33 14 298 545 c164 300 369 677
457 837 88 161 163 292 166 290 14 -6 142 -153 155 -180 9 -16 25 -61 35 -98
25 -89 108 -279 125 -286 21 -8 17 -27 -17 -82 -35 -56 -48 -108 -49 -197 0
-52 -5 -67 -30 -103 -52 -72 -151 -162 -240 -219 -96 -61 -157 -116 -171 -151
-17 -42 29 -95 119 -138 48 -22 60 -24 125 -18 40 4 115 18 167 31 52 13 102
24 111 24 9 0 24 9 34 20 16 18 31 20 121 20 l103 0 26 -87 c35 -113 79 -204
126 -257 34 -38 38 -50 44 -117 4 -41 14 -92 21 -114 10 -30 11 -57 4 -105
-18 -121 -14 -150 36 -261 l47 -103 -13 -206 c-10 -171 -10 -214 1 -246 7 -21
12 -45 11 -52 -2 -6 9 -44 23 -83 14 -38 25 -79 25 -91 0 -11 -20 -54 -45 -95
-25 -40 -45 -76 -45 -78 0 -3 -14 -35 -31 -72 -31 -64 -31 -67 -13 -81 37 -28
85 -42 184 -54 112 -13 208 -2 241 28 28 25 24 65 -22 219 -25 85 -38 147 -34
162 3 14 31 68 61 121 49 83 55 101 51 135 -7 53 -52 113 -114 155 -29 19 -53
40 -53 46 1 6 7 47 15 91 19 103 19 177 0 222 -25 59 -19 139 15 211 16 34 26
62 21 62 -4 0 1 33 12 73 12 46 19 110 20 177 l2 105 -47 95 c-30 60 -53 124
-63 175 -17 82 -33 325 -22 325 3 0 25 -33 48 -72 23 -40 54 -89 69 -108 17
-22 29 -52 32 -82 3 -26 21 -78 41 -117 32 -62 34 -73 25 -104 -16 -51 -2
-103 40 -149 l37 -41 -3 -161 c-2 -96 0 -172 7 -188 6 -17 7 -36 1 -55 -36
-106 -90 -308 -90 -332 0 -44 27 -61 96 -61 57 0 90 11 150 49 12 8 32 11 45
8 23 -6 24 -10 21 -67 -3 -51 0 -67 22 -105 15 -24 36 -51 47 -59 17 -11 19
-18 10 -34 -27 -51 -6 -154 39 -185 40 -28 52 -140 26 -232 -8 -28 -35 -108
-60 -179 -44 -126 -45 -130 -26 -143 11 -8 24 -30 30 -51 13 -47 13 -179 0
-187 -18 -11 -11 -34 26 -90 l36 -54 28 21 c17 12 33 17 41 12 7 -4 57 -6 111
-5 54 1 98 -1 98 -5 0 -4 -7 -15 -15 -24 -15 -16 -12 -18 35 -24 31 -4 58 -2
71 5 21 11 22 16 16 128 -4 97 -11 133 -40 221 -48 142 -69 295 -65 464 2 74
5 136 8 139 3 2 17 7 31 10 24 6 26 3 38 -42 9 -37 10 -59 2 -88 -15 -52 -14
-135 2 -156 10 -14 40 -19 157 -28 165 -12 196 -9 277 26 l59 26 12 64 c16 83
15 100 -3 115 -8 7 -15 26 -15 43 0 17 -7 57 -16 89 -16 56 -42 89 -92 117
-15 8 -15 14 -4 53 7 24 18 73 24 110 l11 68 -46 67 c-53 79 -80 144 -108 261
l-20 83 21 146 c16 106 27 154 41 171 10 14 19 30 19 37 0 7 38 87 85 177 46
90 92 184 101 208 21 57 20 170 -2 350 -9 74 -16 191 -16 260 1 142 19 366 32
390 5 9 27 25 49 35 l40 18 35 -31 c82 -72 206 -63 234 17 6 16 23 38 40 49
l29 21 -8 -44 c-9 -46 0 -119 24 -195 12 -40 12 -49 -4 -85 -11 -23 -19 -64
-19 -96 0 -45 6 -64 30 -101 58 -88 51 -224 -15 -297 -34 -37 -97 -160 -110
-213 -4 -16 -11 -28 -17 -28 -5 0 -33 -23 -63 -51 -46 -43 -52 -54 -43 -69 9
-14 4 -38 -29 -121 -23 -57 -45 -121 -49 -143 l-7 -38 89 7 c49 4 109 14 134
21 24 7 46 12 48 10 1 -2 -1 -46 -7 -98 -12 -123 -1 -177 44 -217 45 -39 89
-51 206 -58 191 -11 244 16 273 135 14 57 15 91 8 228 -7 118 -14 171 -27 198
-18 37 -58 66 -92 66 -40 0 -46 15 -25 56 11 22 24 38 28 37 12 -3 31 56 45
135 10 59 9 72 -11 137 l-23 72 28 46 c15 26 47 65 72 87 71 62 90 95 133 227
43 131 47 161 26 208 -17 41 -2 75 33 75 53 0 66 -12 110 -91 62 -112 108
-159 155 -159 76 0 154 63 187 149 25 65 36 205 21 268 l-10 43 27 -21 c67
-53 170 -65 242 -28 56 28 79 83 86 202 5 86 4 97 -26 171 -18 45 -38 121 -46
180 -24 157 -59 258 -117 337 -11 15 -18 32 -14 37 3 6 11 34 16 64 10 49 8
57 -21 116 l-31 64 17 86 c17 86 46 156 112 266 36 58 36 58 29 145 -13 175
-71 351 -162 498 -57 91 -136 180 -190 214 l-32 19 19 37 c24 47 25 125 2 144
-10 9 -40 14 -84 13 -58 -1 -69 1 -74 17 -10 31 -55 59 -95 59 -31 0 -44 7
-69 35 -17 19 -35 35 -40 35 -12 0 -111 128 -111 144 0 6 -43 99 -96 207 -81
166 -97 209 -110 284 -9 49 -24 110 -35 136 -17 45 -17 51 -3 86 22 50 14 98
-37 224 -58 147 -175 387 -197 407 -11 9 -27 48 -37 87 -35 135 -94 268 -188
424 -94 157 -131 182 -361 240 l-111 28 -11 49 c-11 51 -41 79 -76 70 -15 -3
-18 3 -18 43 0 107 -51 232 -123 298 -53 49 -69 58 -149 83 -91 28 -143 33
-228 21 -103 -15 -136 -25 -200 -63 -93 -56 -152 -156 -184 -309 -21 -97 -59
-153 -124 -180 -29 -12 -59 -31 -67 -43 -17 -23 -20 -88 -5 -116 10 -18 51
-20 218 -6 l42 4 0 -59 c0 -32 4 -61 10 -64 6 -4 6 -12 0 -23 -6 -9 -30 -69
-54 -132 -24 -63 -59 -149 -79 -190 -36 -75 -127 -190 -152 -190 -7 0 -18 13
-25 29 -7 18 -24 34 -41 40 -23 8 -29 16 -29 39 0 27 -4 31 -47 42 -39 9 -51
17 -63 43 -32 67 -250 203 -372 232 -50 11 -358 55 -389 55 -4 0 -10 12 -14
28 -3 15 -15 36 -25 47 -17 18 -18 23 -5 45 81 141 55 203 -102 239 -45 11
-57 20 -100 73 -26 34 -74 81 -107 105 -79 59 -146 77 -255 70 -161 -10 -255
-58 -328 -166 -59 -86 -82 -169 -95 -330 -9 -121 -14 -145 -49 -232 -22 -55
-39 -114 -39 -136 0 -87 72 -167 187 -208 27 -9 55 -20 64 -23 15 -6 13 -18
-13 -112 -16 -58 -37 -123 -48 -145 -10 -22 -24 -67 -30 -100 -45 -233 -53
-259 -85 -290 -18 -16 -61 -41 -96 -54 -86 -32 -173 -77 -300 -153 -77 -46
-139 -75 -225 -102 l-118 -38 -23 26 c-13 15 -23 36 -23 47 0 27 -26 76 -47
88 -16 9 -15 23 25 198 23 103 42 195 42 203 0 9 151 576 336 1260 185 685
361 1337 390 1450 30 113 56 209 57 215 2 5 37 -32 77 -83 110 -137 190 -171
252 -105 21 22 23 34 23 116 0 87 -2 96 -38 167 -72 140 -271 412 -397 543
-60 61 -69 67 -106 67 -37 0 -47 -6 -91 -53z m157 -64 c58 -52 158 -183 287
-375 96 -144 133 -224 133 -286 0 -36 -2 -33 -49 53 -124 230 -198 330 -365
493 -69 67 -126 127 -126 132 0 18 30 38 50 33 11 -3 43 -25 70 -50z m-33
-949 c3 -8 -147 -582 -333 -1274 -286 -1063 -342 -1260 -356 -1260 -10 0 -18
5 -18 11 0 6 34 140 76 298 41 157 190 720 330 1251 140 531 257 971 259 978
6 17 34 15 42 -4z m2961 -810 c33 -12 58 -35 112 -100 39 -47 73 -97 76 -111
6 -24 2 -92 -12 -180 l-6 -41 46 -7 c25 -4 46 -10 46 -14 0 -3 -39 -19 -87
-34 l-88 -27 -115 20 c-189 33 -268 35 -405 11 -247 -45 -285 -59 -312 -114
-17 -34 -22 -39 -28 -24 -14 34 14 75 63 91 25 9 52 22 61 30 58 51 292 78
609 69 105 -3 173 -1 182 6 10 7 16 33 18 88 4 108 -8 165 -36 178 -12 5 -22
17 -22 25 -1 17 -64 74 -142 127 -54 36 -46 37 40 7z m-103 -13 c17 -10 60
-46 97 -80 36 -33 73 -61 82 -61 13 0 13 -3 -4 -20 -11 -11 -20 -27 -20 -35 0
-18 21 -20 37 -4 6 6 16 8 22 5 14 -9 15 -131 1 -155 -13 -25 -73 -35 -117
-20 -20 6 -82 15 -137 19 l-101 7 103 2 c83 1 102 4 102 16 0 8 -12 18 -27 22
-44 13 -220 6 -318 -11 -89 -16 -90 -16 -107 5 -10 12 -18 28 -18 35 0 22 46
131 70 163 23 34 101 73 210 107 93 28 89 28 125 5z m560 -578 c33 -7 102 -28
153 -44 84 -28 96 -35 128 -77 91 -119 203 -343 240 -482 13 -47 26 -73 48
-92 21 -19 26 -27 15 -28 -25 0 -223 -145 -267 -196 -29 -32 -42 -56 -42 -76
0 -30 31 -100 57 -130 24 -28 2 -51 -129 -131 -113 -69 -132 -77 -225 -96
-107 -22 -151 -25 -170 -13 -6 4 -22 32 -36 62 -51 115 -119 140 -280 104 -53
-12 -89 -15 -142 -9 -38 5 -93 9 -121 10 -51 1 -54 3 -180 115 -71 63 -149
135 -172 162 -24 26 -55 51 -68 54 -13 3 -24 12 -24 19 0 6 -8 20 -19 29 -18
16 -16 19 51 84 58 55 79 85 118 167 27 55 55 116 63 136 12 30 19 36 39 32
19 -4 26 2 38 29 l14 33 4 -60 c2 -32 7 -64 11 -70 5 -5 12 -26 15 -45 13 -66
28 -90 80 -127 28 -20 59 -46 68 -59 10 -12 28 -24 41 -28 13 -3 61 -33 107
-66 70 -50 90 -60 118 -58 33 3 36 7 121 173 48 94 109 208 134 254 49 87 56
107 35 98 -52 -21 -48 -30 -48 122 l0 141 40 0 c22 0 40 5 40 10 0 6 7 26 15
46 16 38 5 38 130 7z m-395 -15 c0 -18 -7 -44 -15 -58 -8 -14 -23 -44 -34 -67
-11 -24 -24 -43 -28 -43 -4 0 -16 14 -25 30 -10 17 -25 33 -35 36 -49 15 -70
44 -33 44 26 0 50 12 107 56 25 19 49 34 54 34 5 0 9 -15 9 -32z m95 -200 c0
-66 5 -108 19 -143 l18 -51 -59 -118 -60 -119 -33 48 c-19 28 -35 64 -37 89
-4 37 1 49 47 115 47 66 53 81 62 150 7 61 28 121 41 121 1 0 2 -42 2 -92z
m-134 -25 c17 5 15 -4 -21 -71 -23 -42 -51 -88 -63 -101 -48 -52 -152 -77
-212 -49 -36 16 -31 25 17 31 22 3 53 14 67 25 14 10 48 22 74 25 27 4 53 10
59 13 18 12 38 73 39 121 0 41 2 44 10 24 7 -17 15 -22 30 -18z m-1864 -107
c18 -6 20 -10 10 -35 -8 -23 -6 -32 12 -58 18 -24 23 -44 22 -87 0 -31 -5 -65
-11 -76 -7 -14 -8 -26 0 -39 14 -28 12 -58 -6 -86 -19 -29 -40 -38 -63 -25
-15 7 -21 4 -30 -17 -9 -19 -17 -24 -32 -20 -15 4 -31 -5 -58 -34 -36 -37 -41
-39 -99 -39 -34 0 -62 4 -62 9 0 17 25 28 73 33 87 10 152 73 203 195 29 72
31 139 4 235 -24 88 -25 99 -2 72 10 -12 28 -24 39 -28z m348 19 c75 -20 194
-78 304 -149 93 -59 93 -56 -17 -77 -60 -11 -86 -25 -94 -49 -2 -7 -14 -6 -36
2 -28 11 -37 10 -64 -5 l-31 -18 -42 41 c-31 30 -41 48 -37 62 5 19 2 20 -39
13 -24 -4 -52 -11 -61 -16 -23 -12 -73 32 -102 90 -13 25 -31 60 -40 76 -30
57 -27 58 92 52 59 -3 134 -13 167 -22z m-520 -34 c-210 -191 -286 -245 -410
-286 -65 -22 -91 -26 -137 -21 -55 5 -148 40 -148 55 0 17 13 17 77 0 95 -25
137 -23 234 10 128 43 164 65 263 162 50 49 100 89 111 89 11 0 15 -3 10 -9z
m998 -248 c39 -13 53 -24 55 -40 2 -13 42 -62 89 -110 l85 -88 -4 -55 c-3 -47
-12 -68 -51 -125 -26 -39 -60 -86 -76 -105 l-29 -35 -26 28 c-14 15 -36 27
-49 27 -13 0 -51 14 -85 31 -99 49 -168 142 -194 262 l-11 52 -24 -65 c-13
-36 -26 -71 -28 -78 -6 -16 -40 7 -71 47 -27 37 -27 139 2 177 33 45 48 50 90
31 20 -10 40 -14 43 -9 37 55 50 63 138 80 66 14 89 15 91 6 2 -6 26 -20 55
-31z m2177 -340 c111 -242 148 -368 103 -347 -38 17 -124 17 -142 0 -17 -15
-19 -15 -32 3 -8 10 -24 22 -36 26 -20 5 -27 -3 -64 -77 -50 -100 -90 -203
-82 -212 13 -12 21 -4 97 99 43 58 79 105 81 105 6 0 -34 -143 -42 -149 -4 -3
-54 -36 -110 -73 l-101 -66 -7 -75 c-11 -112 -9 -115 47 -73 51 39 168 168
280 309 77 95 97 113 48 42 -95 -137 -261 -320 -348 -383 l-44 -31 -50 50
c-42 42 -49 55 -45 77 3 15 2 42 -1 59 l-7 33 -45 -36 c-30 -24 -51 -33 -65
-30 -103 29 -229 47 -295 44 -81 -5 -186 -43 -275 -99 l-47 -30 36 65 c42 76
45 116 15 202 -23 66 -22 160 3 244 l14 45 46 -75 c26 -41 58 -100 71 -130 14
-30 37 -66 51 -79 l26 -25 74 24 c57 18 86 21 130 16 31 -3 80 -9 110 -12 71
-8 104 8 210 105 47 42 103 92 127 111 52 44 49 59 -33 147 -33 35 -69 85 -80
109 -21 48 -21 48 26 102 l20 22 43 -42 c23 -23 44 -40 45 -37 2 2 16 30 31
62 15 31 31 57 37 57 6 0 27 -7 47 -15 46 -19 46 -19 39 10 -7 26 8 65 23 65
5 0 37 -62 71 -137z m-1862 14 l22 -23 -49 -80 c-60 -95 -86 -126 -170 -194
-58 -47 -65 -50 -74 -34 -7 13 -7 19 3 22 48 16 143 144 211 285 13 26 26 47
29 47 4 0 16 -10 28 -23z m349 -325 c170 -150 243 -228 243 -256 0 -6 -5 -3
-11 7 -14 24 -46 21 -55 -5 -4 -13 -7 -54 -6 -93 2 -63 -11 -128 -39 -203 -15
-40 -29 -9 -22 52 4 36 12 57 28 71 21 18 22 24 14 74 -4 29 -10 56 -13 58 -9
9 -23 -6 -40 -42 -13 -26 -23 -35 -42 -35 -13 0 -27 -7 -30 -15 -5 -11 -17 -1
-48 36 l-41 51 -3 -61 c-2 -34 4 -112 12 -174 12 -98 13 -122 0 -181 -16 -78
-25 -96 -70 -153 -21 -25 -34 -53 -34 -70 0 -45 -13 -57 -48 -45 -28 9 -31 8
-66 -39 -20 -27 -43 -49 -52 -49 -9 0 -12 5 -8 13 4 6 18 29 32 50 13 22 21
41 19 44 -3 2 14 42 38 88 23 46 57 137 75 202 18 65 38 125 45 133 18 22 28
119 16 171 -13 57 -34 73 -183 140 -99 44 -248 131 -291 169 -5 4 28 37 73 74
44 37 94 86 110 108 17 23 30 34 30 26 0 -14 55 -48 77 -48 5 0 16 -11 23 -25
9 -16 28 -29 52 -36 25 -6 43 -18 50 -35 6 -13 16 -24 21 -24 19 0 47 33 47
55 0 31 -19 45 -60 45 -30 0 -38 5 -54 34 -32 59 -59 79 -105 74 -38 -3 -40
-3 -27 17 7 11 18 30 25 43 14 27 -7 43 318 -246z m-2298 -30 l33 -27 -29 -87
c-27 -84 -29 -87 -63 -93 -74 -14 -217 -66 -264 -95 -26 -17 -72 -54 -101 -81
l-54 -51 -239 -69 c-132 -38 -246 -71 -254 -74 -10 -4 -17 2 -21 16 -4 13 -4
25 -2 27 3 3 64 22 137 42 177 49 286 95 324 136 32 34 279 159 394 199 l65
22 14 82 c9 44 18 81 21 81 3 0 21 -12 39 -28z m3911 -185 c0 -46 21 -118 70
-243 75 -192 139 -303 264 -459 31 -38 56 -76 56 -83 0 -7 7 -27 16 -43 8 -17
13 -33 11 -35 -9 -9 -249 34 -546 98 -161 34 -289 64 -283 66 6 2 73 -6 149
-19 162 -25 219 -27 291 -10 39 10 52 17 52 32 0 18 -12 23 -100 43 -23 5 -27
14 -42 92 -9 48 -24 94 -32 102 -19 19 -114 31 -260 31 l-109 1 69 49 c100 70
298 284 360 390 21 36 34 31 34 -12z m-4986 -152 c9 -13 16 -35 16 -49 0 -15
11 -33 26 -45 19 -15 22 -21 10 -21 -9 0 -28 -14 -43 -30 -23 -26 -27 -41 -30
-106 -5 -89 11 -173 37 -207 11 -13 16 -27 13 -31 -3 -3 -30 -6 -59 -6 -70 0
-84 15 -84 89 0 47 -4 62 -21 77 -26 23 -58 90 -59 121 0 31 45 80 85 93 38
13 51 50 17 50 -26 0 -30 6 -24 36 5 26 43 53 78 54 12 0 29 -11 38 -25z
m3410 -189 c26 -47 62 -97 81 -112 20 -16 53 -44 74 -61 21 -18 45 -33 52 -33
19 1 90 69 109 104 43 82 144 105 233 53 39 -23 97 -82 97 -99 0 -3 -46 -5
-102 -4 -125 0 -156 -9 -273 -84 -49 -32 -114 -72 -142 -89 l-53 -30 0 27 c0
15 -9 41 -21 57 -43 64 -60 108 -80 212 -11 59 -22 116 -25 126 -11 37 6 14
50 -67z m984 36 c-12 -44 -40 -96 -120 -219 l-60 -93 -28 38 c-26 36 -81 72
-110 72 -7 0 61 56 151 124 90 68 167 122 171 120 3 -2 2 -21 -4 -42z m-175
17 l38 -10 -82 -70 c-46 -38 -85 -69 -89 -69 -3 0 -14 9 -23 21 -27 31 -119
70 -182 76 -54 6 -55 6 -33 22 12 8 43 21 68 27 56 16 252 18 303 3z m143
-261 c-31 -58 -56 -108 -56 -111 0 -4 19 -7 43 -7 23 0 65 -3 93 -6 45 -6 50
-9 47 -28 -4 -21 8 -25 316 -90 494 -105 525 -110 704 -110 105 -1 146 -4 125
-9 -18 -5 -35 -10 -37 -13 -7 -6 41 -114 51 -114 5 0 19 5 31 11 25 11 -58
-67 -85 -82 -15 -8 -18 -6 -18 11 0 55 -68 140 -112 140 -32 0 -32 -3 -17 -66
11 -41 10 -47 -10 -68 -11 -12 -21 -27 -21 -33 0 -12 31 -22 70 -24 20 -1 18
-3 -12 -11 -49 -13 -119 18 -207 93 -230 197 -234 198 -566 243 -285 39 -341
34 -366 -31 -11 -31 -4 -43 14 -21 6 9 29 21 49 26 37 10 37 10 26 -11 -6 -12
-17 -28 -25 -35 -14 -15 -17 -32 -5 -32 19 1 54 40 67 75 29 82 14 6 -22 -108
-20 -65 -40 -112 -43 -106 -10 15 -48 2 -59 -19 -4 -9 -11 -32 -14 -50 l-7
-32 40 6 c47 8 61 -10 36 -48 -18 -28 -64 -191 -101 -360 l-28 -127 -45 26
c-35 21 -62 27 -124 31 -71 4 -81 7 -90 27 -6 13 -21 29 -34 36 -17 8 -24 21
-24 41 0 15 -9 37 -20 48 -11 11 -20 28 -20 38 0 14 -4 13 -19 -7 l-18 -23
-22 36 c-17 27 -29 36 -51 36 -19 0 -37 11 -59 37 -17 20 -31 42 -31 50 0 18
-25 17 -40 -2 -7 -8 -16 -15 -21 -15 -5 0 -9 7 -9 15 0 8 -3 15 -8 15 -4 0
-12 20 -18 44 -8 35 -7 43 3 39 26 -10 12 24 -28 66 -22 23 -38 48 -36 56 3 7
29 18 58 24 67 15 117 46 125 78 12 46 -39 118 -60 85 -3 -4 -21 -6 -41 -4
-59 7 -38 39 47 74 4 2 10 18 14 36 5 27 4 32 -12 32 -11 0 -33 -9 -51 -20
-28 -16 -36 -33 -63 -117 -16 -53 -30 -109 -30 -124 0 -14 -9 -34 -21 -45 -11
-10 -27 -32 -34 -49 l-13 -30 -1 34 c-1 19 11 59 26 90 16 35 29 83 33 130 5
46 13 77 21 82 8 4 75 46 149 93 132 84 170 100 170 71 0 -30 23 -64 56 -81
l34 -18 48 47 c56 55 97 62 153 24 45 -30 72 -72 110 -170 28 -74 56 -123 66
-114 7 7 -59 182 -87 232 l-28 50 24 30 c14 17 54 76 91 133 85 134 103 121
29 -20z m354 56 c89 -17 119 -41 127 -102 3 -23 4 -42 2 -42 -2 0 -40 7 -84
15 -44 8 -103 14 -131 15 -42 0 -62 7 -112 40 -44 28 -60 44 -56 55 5 12 9 13
21 3 11 -9 16 -9 24 3 5 8 9 20 9 27 0 15 71 10 200 -14z m-650 -64 c21 -11
48 -34 61 -51 l22 -31 -43 28 c-41 27 -50 29 -144 28 -115 0 -167 -17 -291
-94 -143 -89 -235 -132 -235 -111 0 13 22 27 60 40 45 14 187 96 220 127 14
12 59 39 100 59 70 34 79 36 143 31 38 -4 86 -15 107 -26z m-646 -92 c21 -69
26 -58 -154 -381 -92 -165 -213 -327 -244 -327 -18 0 -85 -90 -138 -186 -53
-95 -134 -208 -321 -449 -175 -224 -191 -242 -87 -90 99 144 160 238 186 285
10 19 44 67 75 105 101 126 199 293 179 305 -15 9 0 49 22 56 10 3 26 21 35
40 9 19 22 34 28 34 7 0 53 45 104 99 88 96 91 101 106 171 8 39 15 87 15 107
0 25 9 46 35 76 24 28 35 50 35 73 0 39 12 74 47 133 l26 44 18 -24 c11 -13
25 -45 33 -71z m-318 15 c-51 -102 -57 -107 -176 -132 -115 -25 -183 -51 -217
-83 -26 -24 -22 -38 11 -38 26 0 46 -17 46 -39 0 -11 -5 -9 -16 7 -10 15 -26
22 -47 22 -18 1 -42 6 -54 13 l-22 12 19 43 c17 37 28 46 87 73 37 17 106 44
153 61 98 35 184 77 220 107 14 11 26 20 28 21 1 0 -13 -30 -32 -67z m-724
-194 c42 -9 102 -35 146 -64 1 -1 0 -9 -4 -18 -3 -9 -21 -17 -42 -19 l-37 -4
46 -21 c26 -12 50 -26 53 -31 3 -6 28 -18 55 -27 35 -13 47 -22 44 -34 -3 -11
12 -24 49 -43 67 -35 18 -26 -55 9 -28 14 -83 31 -121 40 -41 8 -80 23 -92 34
-14 13 -32 19 -50 17 -25 -2 -29 -8 -29 -32 0 -42 32 -61 163 -96 129 -34 167
-51 182 -81 11 -20 11 -20 -13 -4 -24 15 -26 15 -45 -10 -20 -25 -23 -25 -62
-15 -23 6 -57 10 -74 9 -27 -3 -43 6 -90 46 -102 90 -226 145 -322 145 l-43 0
86 134 87 134 58 -29 c32 -16 81 -34 110 -40z m2223 -141 c33 -40 120 -137
195 -215 l135 -143 95 0 c52 0 110 4 128 9 28 8 32 7 32 -9 0 -14 -13 -20 -65
-29 -121 -21 -210 -30 -298 -31 -79 0 -90 -2 -115 -25 -32 -30 -90 -58 -159
-78 -43 -12 -51 -12 -46 -1 3 8 12 14 20 14 8 0 52 19 96 42 l82 43 -40 7
c-22 4 -60 7 -85 8 -86 3 -3 18 168 31 89 6 162 15 162 19 0 4 -17 23 -38 42
-21 19 -70 72 -108 119 -39 46 -118 133 -175 193 -71 75 -94 104 -73 93 17 -9
57 -49 89 -89z m-1550 82 c3 -5 -10 -20 -29 -32 -19 -13 -38 -35 -43 -52 -9
-31 -15 -35 -83 -58 -25 -8 -54 -19 -65 -23 -16 -7 -15 -3 8 22 15 16 27 34
27 41 0 16 -32 15 -50 0 -8 -7 -7 -4 2 7 10 11 41 32 70 46 118 59 151 69 163
49z m1507 -133 c25 -33 36 -56 34 -70 -3 -12 -17 -75 -32 -139 l-28 -117 -40
-6 c-23 -3 -53 -8 -68 -11 -17 -4 -28 -1 -28 6 0 6 16 52 36 103 32 82 52 193
54 291 0 16 2 17 17 5 9 -8 34 -36 55 -62z m-2379 -101 c38 -14 98 -44 135
-68 l66 -43 -55 -8 c-29 -5 -108 -7 -174 -5 -110 3 -124 6 -172 32 -28 15 -66
43 -83 61 l-32 33 43 6 c146 19 198 18 272 -8z m3641 -69 c53 -56 131 -211
156 -311 30 -118 26 -168 -21 -314 -39 -119 -55 -151 -70 -134 -3 4 -18 88
-33 187 -42 274 -88 484 -132 600 -5 11 2 15 27 15 25 0 41 -9 73 -43z m-120
-62 c14 -34 32 -98 40 -141 49 -256 67 -357 63 -360 -9 -9 -50 123 -58 185
-11 94 -26 157 -54 226 -13 33 -30 83 -38 111 -15 49 -14 51 3 47 12 -3 28
-29 44 -68z m-3659 -104 c28 -12 50 -31 60 -51 20 -39 12 -50 -41 -59 -40 -6
-46 -20 -17 -36 10 -5 30 -18 45 -28 20 -13 32 -15 53 -7 37 14 43 13 55 -10
10 -18 7 -22 -20 -32 -24 -8 -30 -16 -28 -32 2 -17 11 -22 45 -24 23 -2 47 -9
53 -17 29 -35 -89 -185 -144 -185 -21 0 -27 -8 -43 -56 -13 -41 -27 -63 -55
-86 -81 -64 -266 -327 -298 -423 l-11 -32 -67 24 c-84 31 -153 28 -234 -9 -32
-15 -58 -25 -58 -24 0 2 7 20 16 41 8 20 19 70 23 110 7 63 16 85 59 157 37
61 58 110 77 183 15 55 41 132 59 170 43 93 207 355 218 349 5 -3 33 20 62 52
54 57 55 57 101 51 26 -4 66 -16 90 -26z m2473 -36 c2 -2 -2 -22 -8 -45 -10
-37 -17 -44 -66 -66 -45 -20 -54 -28 -54 -49 0 -30 0 -30 51 -4 l41 20 -7 -23
c-14 -46 -50 -113 -60 -112 -5 0 -18 16 -27 35 -21 39 -24 131 -8 207 l11 48
62 -4 c34 -2 63 -6 65 -7z m-1648 -4 c0 -21 -102 -162 -163 -226 -53 -55 -101
-126 -220 -328 -142 -242 -152 -256 -158 -227 -4 18 -12 37 -18 43 -8 8 25 80
116 257 l127 246 69 44 c38 25 95 70 126 100 51 50 110 100 118 100 2 0 3 -4
3 -9z m-479 -22 c44 -15 42 -14 30 -37 -16 -29 12 -51 41 -33 21 13 21 13 0
-16 -64 -87 -64 -86 -123 -79 -51 6 -56 10 -83 52 -26 41 -28 59 -7 59 5 0 20
15 35 33 30 35 52 39 107 21z m2744 -143 c131 -161 192 -216 310 -279 l80 -42
148 1 c81 0 147 -2 147 -6 0 -18 -30 -30 -74 -30 -111 0 -218 19 -284 50 -98
46 -224 133 -277 193 -48 52 -185 239 -185 251 0 21 31 -10 135 -138z m-541
-18 c3 -13 9 -65 13 -116 7 -103 14 -114 60 -86 28 18 28 18 11 -2 -30 -34
-23 -47 19 -39 52 9 97 34 183 101 71 54 73 55 35 15 -48 -51 -126 -100 -218
-136 -85 -34 -102 -28 -153 51 -56 88 -58 101 -17 173 36 64 57 76 67 39z
m-1719 -127 c-18 -56 -14 -83 19 -120 49 -55 254 -192 580 -388 142 -85 186
-118 186 -137 0 -5 -6 -2 -12 7 -7 9 -78 51 -158 93 -80 42 -181 99 -224 127
-104 65 -397 289 -413 316 -18 29 -16 62 7 117 26 61 37 50 15 -15z m529 6
c137 -145 184 -210 226 -317 l20 -50 -24 0 c-14 0 -33 -10 -43 -24 l-19 -24
-24 61 c-18 49 -39 77 -101 137 -108 105 -141 185 -97 237 16 20 27 16 62 -20z
m757 18 c23 -9 58 -27 77 -42 35 -26 77 -104 69 -126 -2 -7 -10 8 -17 32 -17
52 -36 66 -118 82 -124 24 -236 -13 -349 -115 -44 -41 -62 -52 -66 -41 -7 17
116 134 181 172 92 54 149 64 223 38z m800 -51 c-30 -38 -28 -72 4 -76 21 -2
3 -17 -101 -83 -70 -44 -131 -82 -136 -83 -13 -6 -81 49 -71 58 4 4 42 20 83
35 62 24 87 41 155 106 80 77 106 94 66 43z m-497 -41 c17 -36 17 -36 -14
-100 -21 -42 -43 -71 -63 -84 -54 -33 -57 -26 -31 74 13 50 24 102 24 114 0
16 7 23 28 26 15 2 30 5 33 6 3 0 13 -15 23 -36z m691 -70 c3 -27 20 -101 36
-167 20 -79 28 -129 23 -149 l-7 -31 -24 48 c-14 27 -35 103 -48 172 -13 68
-29 132 -35 143 -8 16 -6 20 13 24 12 2 25 5 28 6 4 0 10 -20 14 -46z m-2290
-144 c63 -125 117 -184 295 -325 55 -43 98 -79 97 -81 -2 -1 -97 7 -212 18
-174 17 -219 24 -260 44 -60 29 -140 98 -179 154 l-29 41 28 42 c24 36 192
218 201 218 2 0 29 -50 59 -111z m2172 49 c12 -24 27 -74 33 -113 7 -44 25
-95 49 -142 36 -68 37 -73 24 -105 -8 -18 -17 -57 -21 -86 l-7 -52 -90 81
c-54 48 -104 105 -127 142 -21 34 -52 81 -70 104 l-31 43 99 94 c61 58 103 91
110 85 5 -4 20 -27 31 -51z m-818 -51 c58 -20 93 -47 60 -47 -7 0 -20 -7 -30
-16 -15 -14 -23 -14 -77 0 -83 22 -91 21 -158 -22 -91 -59 -134 -104 -134
-140 0 -32 3 -34 70 -47 19 -4 46 -14 58 -22 32 -20 35 -14 17 37 -8 24 -13
46 -10 49 13 13 62 -31 85 -78 18 -35 31 -50 46 -50 11 -1 31 -12 44 -26 13
-14 32 -25 42 -25 10 0 18 -6 18 -12 0 -17 -20 -47 -20 -31 0 41 -74 57 -105
23 -25 -28 -36 -25 -69 20 -62 83 -172 94 -198 19 -11 -31 -22 6 -23 74 0 59
-4 78 -23 104 l-23 32 88 66 c48 35 113 78 143 95 63 35 90 34 199 -3z m466
-59 c44 -46 99 -111 123 -145 l43 -63 -45 20 c-68 29 -147 82 -183 123 -26 30
-39 36 -78 39 l-47 3 42 53 c23 28 47 52 53 52 6 0 48 -37 92 -82z m-240 42
c19 -21 18 -23 -53 -105 -29 -33 -88 -75 -104 -75 -5 0 -8 19 -8 43 0 41 4 46
68 100 37 31 70 57 73 57 3 0 14 -9 24 -20z m994 -186 l-12 -189 -43 -87 c-24
-48 -44 -92 -44 -98 0 -5 9 -10 20 -10 11 0 20 -6 20 -13 0 -20 -69 -83 -78
-71 -26 30 -62 84 -80 120 l-21 42 44 155 c33 115 45 174 45 223 l0 67 36 -72
c44 -88 60 -92 59 -13 0 48 5 66 28 101 16 24 30 41 33 39 2 -3 -1 -90 -7
-194z m-826 -14 c76 -62 170 -111 263 -140 115 -34 229 -134 344 -298 25 -34
54 -65 66 -68 28 -7 34 -31 20 -75 -18 -54 -45 -62 -181 -50 -160 14 -186 27
-347 172 l-37 34 29 85 c45 130 36 203 -29 230 -39 16 -72 7 -115 -30 -46 -41
-66 -39 -66 5 0 73 -33 103 -139 126 l-53 11 23 24 c20 21 32 24 91 24 68 0
70 -1 131 -50z m-3073 -331 c25 -6 52 -17 61 -25 15 -14 14 -20 -11 -87 -27
-70 -30 -72 -67 -77 -57 -8 -63 -15 -63 -76 l0 -54 -43 0 c-63 0 -82 18 -80
74 2 50 67 200 102 235 24 24 37 25 101 10z m2288 -64 c16 -64 56 -121 111
-160 39 -28 49 -30 128 -30 l85 0 54 -110 c76 -157 95 -223 101 -341 6 -114
-10 -214 -57 -355 -52 -155 -99 -379 -120 -574 -19 -170 -36 -230 -108 -378
-38 -78 -77 -148 -85 -156 -14 -11 -17 -9 -24 16 -12 44 -8 301 6 368 8 33 45
157 83 275 75 233 90 300 67 300 -61 0 -265 -215 -335 -352 -40 -79 -27 -238
27 -325 11 -18 18 -33 15 -33 -20 0 -55 26 -74 57 -54 82 -67 184 -33 251 39
77 173 238 364 440 l60 64 34 -39 34 -38 -7 35 c-11 60 -45 141 -62 147 -23 9
-86 -65 -157 -185 -33 -56 -63 -98 -66 -94 -3 4 -12 30 -18 57 -7 28 -23 70
-37 94 -17 31 -20 41 -9 37 23 -8 18 4 -20 62 l-36 52 36 0 c49 0 46 20 -12
78 -37 37 -68 55 -133 80 -155 58 -192 99 -84 90 l54 -5 0 42 c0 55 37 125
110 209 34 37 59 73 57 80 -8 23 -49 18 -78 -10 -16 -15 -29 -22 -29 -15 0 9
-9 11 -30 6 -16 -4 -30 -4 -30 0 0 12 41 68 79 107 47 50 34 67 -40 52 -60
-13 -72 -1 -43 44 30 47 197 223 204 215 3 -5 12 -30 18 -58z m2144 4 l33 -29
-37 15 c-51 20 -94 19 -148 -6 -88 -39 -125 -93 -155 -219 -24 -101 -28 -111
-33 -77 -2 16 2 61 8 100 12 71 13 73 82 140 57 56 68 71 58 82 -14 16 -12 18
50 33 47 11 100 -3 142 -39z m14 -84 c33 -33 75 -126 81 -178 l4 -42 -16 28
c-23 40 -50 34 -81 -18 -27 -48 -64 -66 -93 -48 -13 9 -15 25 -13 81 3 68 2
73 -29 112 -28 35 -31 42 -18 55 16 16 72 33 112 34 17 1 37 -8 53 -24z
m-3461 -104 c115 -203 122 -258 55 -418 l-42 -103 11 -92 c12 -98 4 -159 -22
-186 -13 -12 -20 -4 -58 74 -42 84 -44 91 -43 173 1 66 8 110 33 189 44 144
46 171 22 295 -20 103 -26 167 -17 167 3 0 30 -45 61 -99z m3513 -158 c23 -35
55 -111 76 -182 26 -90 17 -211 -19 -241 -23 -19 -100 31 -127 83 -18 34 -22
59 -23 127 0 47 4 95 8 108 7 19 5 22 -17 22 -32 0 -34 16 -3 24 12 3 32 24
45 46 12 22 27 40 32 40 5 0 17 -12 28 -27z m-3042 -98 c136 -69 241 -230 289
-439 47 -210 55 -381 21 -461 l-13 -30 -6 30 c-4 17 -13 89 -21 162 -13 122
-26 173 -44 173 -27 -1 -54 -50 -81 -147 -17 -63 -19 -66 -26 -38 -14 64 -30
107 -40 108 -20 4 -47 -135 -49 -248 l-1 -110 58 -107 c57 -104 58 -108 35
-108 -65 0 -106 108 -131 340 -12 122 -13 124 -28 96 l-16 -28 -36 58 c-20 33
-37 52 -37 44 -1 -28 52 -234 95 -370 37 -115 44 -151 47 -242 l5 -108 -36 0
c-48 0 -94 30 -115 74 -9 20 -22 78 -27 129 -6 50 -12 94 -14 96 -8 7 -25 -11
-25 -27 -1 -43 -16 -43 -64 -1 -88 77 -126 193 -126 384 0 116 17 205 49 260
29 50 44 38 71 -56 26 -89 42 -119 66 -119 22 0 17 52 -12 114 -49 108 -14
124 80 37 63 -59 106 -77 106 -46 0 24 -44 134 -93 231 -65 130 -91 221 -84
300 2 35 11 71 18 80 21 26 99 13 185 -31z m555 -475 c26 -22 59 -45 73 -51
14 -7 26 -20 26 -29 0 -9 11 -38 25 -64 27 -50 32 -76 14 -76 -17 0 -119 102
-144 145 -31 52 -57 115 -48 115 4 0 28 -18 54 -40z m-1431 -390 c14 0 13 7
-6 35 -9 14 -12 25 -6 25 19 0 68 -57 100 -117 54 -102 66 -166 66 -365 1
-133 4 -179 14 -183 6 -2 12 -16 12 -30 0 -23 -3 -25 -47 -24 -27 1 -40 3 -30
6 9 2 17 8 17 13 0 5 5 55 11 111 8 76 8 131 -1 218 -10 101 -17 127 -52 203
-34 72 -46 89 -71 98 -16 5 -36 10 -44 10 -17 0 -52 39 -53 59 0 7 18 -3 40
-23 22 -20 45 -36 50 -36z m2809 -59 c10 -7 15 -46 19 -157 2 -82 9 -157 14
-166 6 -12 5 -18 -2 -18 -6 0 -15 11 -20 24 -10 28 -38 46 -70 46 -16 0 -20 4
-16 16 3 9 6 43 6 77 l0 62 32 0 c35 0 45 17 34 61 -5 17 -13 24 -31 24 -14 0
-25 -2 -25 -4 0 -2 -3 -12 -6 -21 -5 -13 -2 -16 14 -13 29 4 29 -16 0 -23 -18
-4 -27 1 -41 24 -10 16 -17 30 -15 31 69 46 84 51 107 37z m99 -233 c12 -14
22 -34 22 -46 0 -12 10 -49 21 -83 16 -46 20 -73 15 -110 -9 -68 -14 -78 -36
-72 -12 3 -32 -5 -52 -22 -27 -23 -39 -26 -75 -22 -56 6 -83 30 -83 75 0 19
-7 61 -15 93 -16 59 -14 79 6 79 6 0 18 9 28 21 12 16 23 19 43 14 21 -5 24
-10 15 -19 -6 -7 -19 -11 -29 -8 -25 6 -23 -17 4 -45 31 -33 77 -31 111 5 27
29 27 29 7 47 -18 16 -20 29 -18 134 1 99 2 106 7 49 5 -50 12 -72 29 -90z
m-2925 16 c50 -50 87 -200 55 -220 -6 -4 -37 -7 -67 -6 -65 2 -101 -17 -101
-52 0 -33 -67 -77 -142 -92 -62 -13 -274 -8 -283 6 -9 15 35 57 93 88 33 18
77 51 97 74 53 60 172 165 224 199 56 36 90 37 124 3z m314 -5 c59 -29 88 -83
79 -152 -8 -75 -33 -94 -148 -110 l-37 -6 7 32 c4 18 7 83 6 145 l-1 112 25 0
c14 0 45 -9 69 -21z m1026 -312 c16 -11 16 -26 -8 -242 -22 -198 -30 -242 -58
-315 l-32 -85 -7 85 c-3 47 -10 99 -16 115 -6 21 -5 39 4 60 20 46 17 105 -6
130 -18 19 -18 23 -5 63 14 40 14 60 -1 159 -4 24 -1 32 13 36 37 10 100 7
116 -6z m322 -49 c-5 -49 1 -95 24 -210 l30 -148 -20 -46 c-11 -26 -21 -45
-23 -43 -7 7 -46 211 -56 292 -7 53 -6 94 1 125 10 45 33 92 45 92 3 0 3 -28
-1 -62z m-500 -58 c18 -20 18 -23 -8 -100 -15 -44 -27 -86 -27 -95 0 -8 13
-56 29 -107 16 -51 32 -111 36 -133 l7 -40 -24 23 c-15 14 -37 22 -58 22 -29
0 -43 -9 -89 -57 l-54 -58 5 190 c2 105 3 198 1 208 -7 28 -33 20 -33 -10 0
-16 -3 -39 -7 -52 l-6 -24 -18 24 c-16 22 -16 25 3 74 25 65 65 123 97 140 41
22 124 19 146 -5z m1455 -100 c0 -35 25 -41 35 -9 6 17 9 19 16 8 14 -22 11
-29 -31 -66 -28 -26 -40 -44 -40 -64 0 -23 -6 -29 -47 -43 -26 -9 -72 -19
-102 -23 -62 -7 -61 -19 -15 119 27 82 31 87 64 96 19 6 54 10 78 11 40 1 42
0 42 -29z m258 -20 c24 -32 49 -39 58 -15 13 33 31 13 42 -46 14 -74 8 -88
-24 -58 -22 21 -25 21 -48 6 -23 -15 -24 -21 -20 -74 l5 -58 -18 35 c-21 40
-52 49 -89 26 -18 -12 -24 -13 -24 -4 0 18 12 33 33 41 9 3 17 17 17 29 1 48
11 131 16 139 10 17 30 9 52 -21z m-205 -315 c-13 -160 -13 -157 32 -180 55
-27 232 -28 285 -2 l35 18 -23 -20 c-13 -11 -43 -23 -69 -27 -70 -10 -214 1
-251 20 -57 30 -63 47 -55 188 l6 127 24 -17 c22 -16 23 -20 16 -107z m-4034
69 c173 -60 283 -106 288 -121 6 -18 -39 -33 -96 -33 -70 0 -680 111 -713 130
-24 14 -51 13 -67 -2 -11 -11 -12 -9 -3 8 27 51 68 59 327 62 l129 2 135 -46z
m3211 26 c0 -6 -5 -19 -12 -29 -9 -14 -7 -56 6 -182 10 -90 22 -193 28 -229
18 -111 66 -245 112 -313 74 -108 69 -126 -14 -52 -59 52 -101 59 -156 24 -33
-20 -95 -96 -114 -140 -9 -20 -10 -18 -6 18 2 23 13 54 24 68 11 14 23 48 27
75 10 71 -14 141 -80 230 l-56 75 3 85 c1 47 -1 91 -6 98 -9 15 17 62 87 155
61 80 157 152 157 117z m-338 -455 c0 -194 -24 -465 -42 -465 -19 0 -20 49 -6
242 8 112 15 245 16 296 1 51 4 101 7 110 14 34 24 -44 25 -183z m-330 -5 c34
-10 39 -16 64 -83 15 -39 33 -87 40 -106 16 -38 18 -53 5 -33 -5 9 -40 15
-103 18 -83 5 -102 2 -159 -19 -114 -44 -106 -42 -89 -23 32 33 129 58 215 54
l80 -3 3 33 c3 31 1 33 -25 31 -52 -4 -79 0 -64 10 9 6 11 16 7 27 -5 13 0 24
16 36 38 28 12 41 -48 23 -27 -8 -50 -15 -51 -15 -2 0 -3 9 -3 20 0 12 -7 20
-17 20 -15 0 -16 2 -3 10 20 13 85 13 132 0z m-451 -524 c43 -32 79 -86 79
-119 0 -22 -44 -72 -86 -98 -35 -21 -92 -27 -135 -14 -19 6 -20 8 -4 26 17 18
18 18 56 -2 44 -22 44 -22 24 17 -20 38 -19 47 6 70 l21 19 -23 5 c-24 6 -47
35 -36 46 3 4 22 -5 41 -20 49 -37 63 -32 28 12 -16 20 -37 49 -47 65 -17 27
-17 27 6 27 13 0 45 -16 70 -34z m834 14 c17 -19 18 -26 6 -73 -20 -82 -32
-407 -20 -512 14 -119 34 -211 59 -276 11 -30 20 -55 20 -56 0 -1 -16 5 -35
13 -68 28 -158 14 -243 -39 l-39 -26 -7 67 c-4 37 -16 86 -27 108 l-20 42 37
98 c73 197 84 264 63 364 -10 45 -9 53 7 64 19 14 12 36 -12 36 -30 0 -9 34
36 57 34 19 54 23 83 19 36 -6 37 -5 37 25 l0 31 -87 -4 c-72 -2 -94 -7 -120
-26 -45 -32 -42 -12 4 28 79 70 220 102 258 60z m480 -213 c45 -25 93 -106 97
-167 l3 -35 -52 3 c-42 3 -58 -1 -90 -22 -44 -31 -88 -34 -102 -8 -5 10 -7 44
-4 75 l6 57 -54 1 c-51 1 -52 1 -21 10 17 5 32 16 32 23 0 8 6 16 13 19 9 3 9
8 -2 21 -12 14 -25 16 -70 11 l-56 -5 40 15 c53 21 141 34 185 28 19 -2 53
-14 75 -26z m-1343 -384 c66 -38 91 -108 48 -130 -51 -26 -289 -8 -322 25 -13
13 59 93 105 116 40 21 124 15 169 -11z"/>
<path d="M5320 10025 c0 -30 -19 -45 -57 -45 -22 0 -33 -5 -33 -14 0 -19 39
-46 65 -46 38 0 119 -32 148 -58 25 -24 27 -24 27 -6 0 35 -44 108 -74 124
-16 8 -40 26 -53 40 -21 24 -22 24 -23 5z"/>
<path d="M7080 8944 c0 -4 6 -12 14 -18 8 -6 60 -51 115 -99 l101 -89 60 63
c33 34 59 67 57 72 -2 6 -68 23 -148 38 -79 16 -156 31 -171 35 -16 3 -28 2
-28 -2z"/>
<path d="M5937 8895 c-14 -14 -37 -94 -37 -133 0 -9 -12 -39 -25 -67 -15 -30
-25 -68 -25 -94 0 -40 5 -48 49 -90 39 -36 60 -70 101 -161 80 -175 81 -174
49 37 l-22 141 36 74 c42 85 44 91 18 83 -17 -5 -18 -2 -8 44 13 70 4 95 -54
141 -57 45 -61 46 -82 25z"/>
<path d="M2271 4849 c-13 -5 -22 -11 -20 -14 9 -9 670 -127 676 -121 6 6 -8
19 -52 51 -12 8 -125 29 -275 50 -140 19 -266 37 -280 40 -14 2 -36 0 -49 -6z"/>
<path d="M1487 1829 c-147 -34 -229 -162 -197 -304 24 -108 96 -155 287 -187
179 -30 228 -63 228 -153 0 -65 -23 -101 -85 -132 -50 -26 -161 -31 -250 -12
l-50 11 0 64 0 64 -65 0 -65 0 0 -109 0 -109 93 -18 c56 -11 138 -17 212 -17
144 0 213 21 277 85 54 54 71 98 71 185 0 63 -4 79 -29 120 -43 70 -123 108
-278 134 -130 22 -163 35 -195 75 -27 34 -28 98 -2 140 37 60 140 84 266 62
l70 -13 3 -62 3 -63 64 0 65 0 0 104 c0 120 10 109 -124 131 -99 16 -239 18
-299 4z"/>
<path d="M3777 1830 c-246 -62 -372 -372 -267 -654 40 -105 127 -193 233 -232
75 -28 221 -25 299 5 155 60 251 223 252 426 1 154 -42 271 -131 357 -72 70
-146 100 -257 104 -50 2 -108 -1 -129 -6z m238 -139 c65 -37 109 -101 129
-190 46 -200 -21 -389 -156 -445 -52 -22 -162 -20 -213 3 -55 25 -108 87 -136
157 -29 77 -32 242 -5 318 36 101 101 164 189 187 54 14 137 1 192 -30z"/>
<path d="M5435 1820 c-112 -37 -196 -121 -247 -248 -19 -49 -22 -75 -22 -192
0 -154 14 -204 84 -303 74 -103 179 -152 325 -151 148 1 249 53 324 166 52 77
71 140 78 253 7 114 -8 191 -52 282 -42 86 -113 153 -195 185 -80 31 -215 34
-295 8z m246 -117 c98 -39 159 -163 159 -322 0 -214 -100 -341 -270 -341 -170
0 -270 127 -270 341 0 226 116 361 293 343 27 -3 67 -12 88 -21z"/>
<path d="M7577 1829 c-147 -34 -229 -162 -197 -304 24 -108 96 -155 287 -187
180 -30 239 -73 230 -167 -10 -91 -83 -141 -209 -141 -42 0 -100 5 -128 11
l-50 11 0 64 0 64 -65 0 -65 0 0 -109 0 -109 93 -18 c133 -25 315 -24 383 3
72 28 117 65 146 120 32 60 41 119 28 180 -26 117 -107 171 -305 204 -129 22
-162 35 -194 75 -27 34 -28 98 -2 140 37 60 140 84 266 62 l70 -13 3 -62 3
-63 64 0 65 0 0 104 c0 120 10 109 -124 131 -99 16 -239 18 -299 4z"/>
<path d="M8377 1830 c-128 -33 -207 -126 -207 -245 0 -94 44 -166 124 -204 25
-11 98 -30 163 -41 187 -33 236 -65 236 -155 0 -99 -73 -155 -205 -155 -42 0
-100 5 -128 11 l-50 11 0 64 0 64 -65 0 -65 0 0 -108 0 -109 51 -11 c86 -20
241 -34 304 -28 135 13 236 73 276 161 25 54 25 157 0 210 -40 87 -108 124
-286 155 -180 32 -218 58 -218 146 0 52 23 89 74 119 27 16 51 20 119 19 47 0
104 -6 128 -13 l42 -12 0 -59 0 -60 60 0 61 0 -3 107 -3 107 -60 13 c-77 17
-299 25 -348 13z"/>
<path d="M0 1780 l0 -50 49 0 49 0 4 -302 c4 -331 7 -349 66 -411 114 -120
396 -127 529 -12 74 63 77 80 81 423 l3 302 55 0 54 0 0 50 0 50 -175 0 -175
0 0 -50 0 -50 55 0 55 0 0 -267 c0 -164 -4 -283 -11 -308 -26 -92 -128 -140
-252 -117 -70 13 -103 34 -132 83 -19 31 -20 55 -23 322 l-4 287 56 0 56 0 0
50 0 50 -170 0 -170 0 0 -50z"/>
<path d="M2630 1780 l0 -50 55 0 55 0 0 -345 0 -345 -55 0 -55 0 0 -50 0 -50
175 0 175 0 0 50 0 50 -60 0 -60 0 0 119 0 119 173 4 c155 3 177 6 220 27 95
46 143 144 135 275 -6 83 -30 139 -82 184 -63 55 -108 62 -408 62 l-268 0 0
-50z m585 -102 c78 -85 49 -241 -52 -284 -22 -10 -75 -14 -168 -14 l-135 0 0
171 0 170 161 -3 161 -3 33 -37z"/>
<path d="M4390 1780 l0 -50 55 0 55 0 0 -345 0 -345 -55 0 -55 0 0 -50 0 -50
350 0 350 0 0 120 0 120 -65 0 -65 0 0 -70 0 -70 -165 0 -165 0 0 345 0 345
55 0 55 0 0 50 0 50 -175 0 -175 0 0 -50z"/>
<path d="M6610 1780 l0 -50 50 0 c28 0 50 -3 50 -7 0 -5 -55 -160 -121 -345
l-122 -338 -44 0 -43 0 0 -50 0 -50 165 0 165 0 0 50 0 50 -50 0 c-27 0 -50 3
-50 8 0 4 12 42 27 85 l27 77 169 -2 170 -3 28 -82 28 -83 -50 0 -49 0 0 -50
0 -50 165 0 165 0 0 50 0 50 -43 0 -44 0 -118 333 c-65 182 -120 338 -123 345
-3 8 10 12 47 12 l51 0 0 50 0 50 -225 0 -225 0 0 -50z m227 -468 c-72 -1
-132 -1 -134 2 -3 2 26 92 62 200 l67 195 67 -197 67 -197 -129 -3z"/>
<path d="M8930 1780 l0 -50 55 0 55 0 0 -345 0 -345 -55 0 -55 0 0 -50 0 -50
170 0 170 0 0 50 0 50 -55 0 -55 0 0 307 0 307 44 -85 c24 -46 110 -205 190
-354 l145 -270 80 -3 81 -3 0 396 0 395 55 0 55 0 0 50 0 50 -170 0 -170 0 0
-50 0 -50 50 0 50 0 0 -287 0 -288 -38 71 c-20 39 -102 191 -182 337 l-145
267 -137 0 -138 0 0 -50z"/>
<path d="M880 1005 l0 -65 70 0 70 0 0 65 0 65 -70 0 -70 0 0 -65z"/>
<path d="M2040 1005 l0 -65 65 0 65 0 0 65 0 65 -65 0 -65 0 0 -65z"/>
<path d="M9870 1005 l0 -65 65 0 65 0 0 65 0 65 -65 0 -65 0 0 -65z"/>
<path d="M3100 544 c-88 -16 -140 -69 -140 -145 0 -88 36 -118 173 -147 47
-10 97 -26 110 -35 50 -32 43 -107 -14 -149 -27 -21 -102 -26 -173 -13 -34 7
-36 9 -36 46 0 37 -2 39 -30 39 -30 0 -30 0 -30 -59 0 -47 4 -60 18 -66 9 -4
67 -10 128 -13 99 -4 115 -2 152 17 56 29 82 72 82 137 0 86 -44 124 -174 149
-95 18 -122 31 -136 66 -15 36 -2 76 32 102 28 21 97 27 161 14 35 -8 37 -10
37 -47 0 -38 2 -40 30 -40 l31 0 -3 62 c-3 62 -3 62 -37 69 -50 10 -153 17
-181 13z"/>
<path d="M4410 541 c-19 -4 -55 -18 -78 -31 -134 -76 -161 -309 -50 -435 56
-64 104 -79 230 -73 138 7 138 7 138 79 0 59 0 59 -30 59 -28 0 -30 -3 -30
-34 0 -19 -5 -38 -10 -41 -6 -4 -43 -9 -83 -12 -63 -4 -78 -2 -117 19 -134 73
-135 328 0 396 31 15 61 22 100 21 89 -2 105 -9 108 -52 3 -34 6 -37 33 -37
29 0 29 0 29 60 l0 59 -37 10 c-56 14 -163 20 -203 12z"/>
<path d="M5961 540 c-81 -20 -111 -57 -111 -138 0 -54 24 -96 61 -107 20 -7
19 -8 -10 -26 -69 -42 -92 -135 -48 -200 33 -50 79 -69 165 -69 124 0 182 46
182 145 0 60 -22 100 -68 124 -20 11 -30 20 -21 21 8 0 28 13 43 29 55 58 40
163 -29 202 -37 21 -118 30 -164 19z m142 -80 c37 -41 36 -83 -2 -121 -55 -54
-168 -34 -191 36 -33 101 117 168 193 85z m-29 -214 c42 -18 66 -51 66 -94 0
-66 -44 -102 -124 -102 -81 0 -126 39 -126 108 0 76 100 123 184 88z"/>
<path d="M6411 540 c-40 -10 -77 -36 -105 -74 -17 -22 -21 -42 -21 -104 0 -65
4 -82 24 -111 47 -65 159 -82 240 -36 l44 25 -7 -42 c-10 -63 -36 -110 -76
-136 -30 -20 -43 -23 -84 -17 -64 8 -66 10 -66 51 0 31 -2 34 -30 34 -30 0
-30 -1 -30 -55 0 -54 0 -54 38 -64 55 -16 168 -14 201 4 74 38 111 127 111
264 0 98 -10 144 -43 192 -40 60 -120 88 -196 69z m105 -62 c28 -13 61 -74 70
-126 5 -34 3 -47 -12 -63 -30 -33 -69 -49 -118 -49 -36 0 -52 6 -78 29 -31 27
-33 34 -33 94 0 56 4 69 24 91 39 41 93 50 147 24z"/>
<path d="M6855 535 c-90 -32 -128 -120 -123 -283 3 -92 7 -115 29 -157 35 -70
76 -95 153 -95 78 0 124 29 157 97 32 65 40 236 14 312 -21 65 -68 115 -120
130 -50 14 -61 13 -110 -4z m123 -70 c41 -34 62 -102 62 -195 0 -135 -49 -220
-125 -220 -76 0 -125 85 -125 219 0 99 14 147 55 188 42 42 90 45 133 8z"/>
<path d="M3400 515 c0 -22 4 -25 35 -25 l35 0 0 -220 0 -220 -35 0 c-31 0 -35
-3 -35 -25 l0 -25 100 0 100 0 0 25 c0 22 -4 25 -35 25 l-35 0 0 220 0 220 35
0 c31 0 35 3 35 25 l0 25 -100 0 -100 0 0 -25z"/>
<path d="M3690 515 c0 -22 4 -25 35 -25 l35 0 0 -220 0 -220 -35 0 c-31 0 -35
-3 -35 -25 l0 -25 100 0 100 0 0 25 c0 22 -4 25 -35 25 l-35 0 0 198 c0 193 0
196 18 167 10 -16 67 -117 127 -222 107 -190 110 -193 142 -193 l33 0 0 245 0
245 35 0 c31 0 35 3 35 25 0 25 0 25 -95 25 -95 0 -95 0 -95 -25 0 -21 5 -25
30 -25 l30 0 0 -182 c0 -157 -2 -180 -14 -163 -7 11 -61 104 -120 208 l-108
187 -74 0 c-72 0 -74 -1 -74 -25z"/>
<path d="M4700 515 c0 -22 4 -25 35 -25 l35 0 0 -220 0 -220 -35 0 c-31 0 -35
-3 -35 -25 l0 -25 215 0 215 0 0 65 0 65 -30 0 c-28 0 -30 -2 -30 -40 l0 -40
-120 0 -120 0 0 105 0 105 110 0 110 0 0 25 0 25 -110 0 -110 0 0 90 0 90 120
0 120 0 0 -40 c0 -38 2 -40 30 -40 l30 0 0 65 0 65 -215 0 -215 0 0 -25z"/>
<path d="M5525 494 c-89 -59 -88 -58 -80 -83 8 -27 19 -26 58 3 18 13 44 31
60 41 l27 17 0 -211 0 -211 -50 0 c-47 0 -50 -2 -50 -25 l0 -25 125 0 125 0 0
25 c0 23 -4 25 -45 25 l-45 0 0 245 0 245 -28 0 c-16 0 -56 -19 -97 -46z"/>
</g>
</svg>
