<?xml version="1.0" standalone="no"?>
<!DOCTYPE svg PUBLIC "-//W3C//DTD SVG 20010904//EN"
 "http://www.w3.org/TR/2001/REC-SVG-20010904/DTD/svg10.dtd">
<svg version="1.0" xmlns="http://www.w3.org/2000/svg"
 width="300.000000pt" height="125.000000pt" viewBox="0 0 300.000000 125.000000"
 preserveAspectRatio="xMidYMid meet">
<metadata>
Created by potrace 1.16, written by Peter Selinger 2001-2019
</metadata>
<g transform="translate(0.000000,125.000000) scale(0.100000,-0.100000)"
fill="#000000" stroke="none">
<path d="M1247 1243 c-15 -14 -6 -51 16 -67 21 -16 18 -16 -58 -14 -76 3 -80
2 -83 -19 -2 -14 2 -23 10 -23 7 0 2 -7 -10 -16 -32 -22 -27 -55 18 -115 22
-30 40 -58 40 -64 0 -5 -14 -18 -31 -27 -25 -15 -30 -23 -27 -50 2 -23 10 -36
27 -45 14 -6 34 -29 44 -50 26 -50 142 -164 190 -187 45 -21 62 -13 26 11 -63
45 -112 101 -145 169 -22 43 -34 80 -30 90 3 9 2 22 -4 29 -17 21 9 64 52 86
22 11 43 30 48 42 13 32 12 1 -1 -69 -7 -32 -16 -64 -21 -70 -14 -19 3 -96 28
-121 22 -22 72 -31 88 -16 4 5 42 8 84 8 61 0 83 4 104 20 85 61 16 162 -119
173 -69 5 -66 2 -78 104 -11 89 -47 103 -65 26 l-8 -33 -1 38 c-1 25 4 40 14
43 26 10 17 32 -10 26 -31 -5 -72 -57 -81 -100 -3 -17 -17 -41 -30 -53 -24
-22 -24 -22 -24 -2 0 11 -7 26 -15 33 -12 10 -12 15 1 35 12 18 13 29 5 43 -9
17 -7 20 18 25 15 3 42 17 59 31 16 15 41 26 54 26 13 0 46 11 74 25 l50 25
48 -25 c27 -14 60 -25 74 -25 13 0 38 -11 54 -26 17 -14 44 -28 59 -31 25 -5
27 -8 18 -25 -8 -14 -7 -25 5 -43 13 -20 13 -25 1 -35 -8 -7 -15 -19 -15 -26
0 -40 -40 2 -64 67 -18 51 -39 73 -73 82 -26 6 -30 -8 -8 -29 8 -9 15 -32 15
-52 0 -46 19 -75 60 -92 37 -15 67 -65 50 -84 -5 -8 -8 -21 -4 -29 3 -9 -10
-49 -30 -90 -33 -69 -80 -124 -145 -170 -39 -26 -18 -31 30 -6 57 29 160 133
185 186 10 23 26 43 35 43 23 0 39 21 39 52 0 22 -8 33 -30 46 -16 9 -30 22
-30 28 0 6 18 35 40 64 44 59 50 93 21 112 -15 9 -17 16 -9 25 5 7 8 19 5 27
-5 12 -22 14 -84 10 -78 -6 -78 -6 -55 13 28 23 27 66 -1 71 -11 2 -38 -7 -62
-19 -39 -21 -48 -22 -87 -12 -31 8 -55 9 -90 1 -41 -10 -50 -9 -83 10 -36 22
-66 28 -78 15z"/>
<path d="M813 460 c-25 -10 -31 -35 -10 -43 6 -3 -18 -6 -55 -6 -52 -1 -68 -4
-68 -15 0 -11 14 -16 48 -18 l47 -3 5 -168 5 -167 -37 0 c-27 0 -38 -4 -38
-15 0 -13 23 -15 145 -15 122 0 145 2 145 15 0 11 -12 15 -50 15 l-50 0 0 170
0 170 35 0 c24 0 35 5 35 15 0 11 -13 15 -52 16 -29 0 -47 3 -40 6 21 8 13 33
-14 43 -14 6 -26 10 -27 9 -1 0 -12 -4 -24 -9z"/>
<path d="M1275 413 c-78 -17 -126 -36 -148 -59 -36 -36 -35 -75 2 -106 30 -26
45 -31 221 -73 114 -27 147 -48 135 -85 -11 -36 -69 -54 -175 -54 -115 -1
-164 8 -189 36 -11 11 -27 18 -35 15 -12 -5 -13 -12 -4 -41 10 -33 14 -35 64
-42 29 -3 106 -5 171 -3 107 4 123 7 178 34 70 35 94 69 80 112 -14 39 -76 67
-220 99 -131 29 -165 44 -165 74 0 27 36 48 102 60 67 13 170 -1 194 -25 21
-20 34 -11 34 24 0 21 -6 30 -22 35 -26 6 -192 6 -223 -1z"/>
<path d="M1845 413 c-124 -27 -175 -60 -175 -112 0 -20 9 -37 29 -54 28 -23
57 -33 241 -77 94 -22 126 -45 115 -80 -12 -38 -68 -54 -185 -54 -108 -1 -174
14 -184 39 -6 16 -32 20 -40 6 -3 -4 0 -22 6 -39 11 -28 18 -32 64 -38 29 -3
106 -5 171 -3 107 4 123 7 178 34 70 35 94 69 80 112 -14 39 -76 67 -220 99
-131 29 -165 44 -165 74 0 27 36 48 102 60 67 13 170 -1 194 -25 21 -20 34
-11 34 24 0 24 -5 30 -31 35 -35 7 -182 6 -214 -1z"/>
<path d="M0 395 c0 -11 12 -15 44 -15 31 0 46 -5 50 -16 3 -9 6 -85 6 -170 l0
-154 -40 0 c-30 0 -40 -4 -40 -16 0 -14 26 -15 233 -12 195 3 238 6 272 21 58
26 85 55 85 92 0 41 -31 70 -101 94 l-54 18 32 7 c37 8 83 48 83 71 0 31 -54
72 -108 84 -30 6 -144 11 -257 11 -176 0 -205 -2 -205 -15z m414 -39 c41 -17
50 -30 42 -60 -9 -36 -65 -52 -163 -48 l-83 4 0 59 0 59 85 0 c51 0 99 -6 119
-14z m26 -169 c61 -31 74 -67 39 -103 -31 -31 -81 -43 -176 -44 -88 0 -93 6
-93 111 l0 72 93 -7 c66 -5 105 -13 137 -29z"/>
<path d="M2210 396 c0 -11 14 -16 47 -18 44 -3 48 -5 54 -33 4 -16 7 -92 8
-167 l1 -138 -40 0 c-29 0 -40 -4 -40 -15 0 -13 39 -15 294 -15 l294 0 12 30
c17 40 8 46 -36 25 -27 -13 -73 -19 -179 -23 -78 -2 -154 -2 -169 2 -25 6 -26
8 -26 86 l0 80 141 0 c132 0 141 -1 146 -20 3 -11 14 -20 24 -20 17 0 19 8 19
60 0 53 -2 60 -20 60 -13 0 -20 -7 -20 -19 0 -24 -40 -31 -182 -31 l-108 0 0
65 0 65 151 0 c120 0 158 -3 186 -17 39 -18 53 -9 53 35 l0 22 -305 0 c-259 0
-305 -2 -305 -14z"/>
</g>
</svg>
