<?xml version="1.0" standalone="no"?>
<!DOCTYPE svg PUBLIC "-//W3C//DTD SVG 20010904//EN"
 "http://www.w3.org/TR/2001/REC-SVG-20010904/DTD/svg10.dtd">
<svg version="1.0" xmlns="http://www.w3.org/2000/svg"
 width="300.000000pt" height="187.000000pt" viewBox="0 0 300.000000 187.000000"
 preserveAspectRatio="xMidYMid meet">
<metadata>
Created by potrace 1.16, written by Peter Selinger 2001-2019
</metadata>
<g transform="translate(0.000000,187.000000) scale(0.100000,-0.100000)"
fill="#000000" stroke="none">
<path d="M369 1186 c-2 -2 -3 -90 -1 -195 l3 -191 284 0 285 0 -4 193 -5 192
-279 3 c-153 1 -280 0 -283 -2z m413 -57 c21 -5 49 -24 67 -44 26 -30 31 -44
31 -86 0 -61 -21 -104 -63 -129 -27 -17 -51 -20 -160 -20 -89 0 -138 4 -162
14 -110 46 -95 232 21 265 40 12 221 12 266 0z"/>
<path d="M580 1080 c-36 -3 -71 -9 -79 -14 -22 -15 -43 -74 -32 -94 9 -15 10
-14 11 5 0 15 5 21 15 17 9 -4 16 3 21 20 3 15 13 26 23 26 9 0 25 7 36 15 15
12 37 14 100 9 71 -6 83 -10 113 -37 32 -31 42 -57 21 -57 -6 0 -9 7 -5 15 3
8 1 15 -3 15 -5 0 -13 -17 -18 -37 -10 -41 -33 -57 -33 -22 0 21 -1 21 -18 6
-25 -23 -35 -21 -27 3 5 16 2 20 -18 20 -14 0 -31 -9 -39 -22 -10 -15 -20 -19
-33 -14 -15 5 -16 9 -7 15 10 6 10 10 -1 20 -12 9 -25 7 -65 -8 -27 -11 -52
-19 -54 -18 -2 1 7 -8 20 -20 21 -21 32 -23 140 -23 129 0 150 7 177 60 14 26
14 34 1 64 -8 19 -23 39 -33 44 -23 12 -130 18 -213 12z"/>
<path d="M1440 1015 l0 -155 25 0 c22 0 25 4 25 38 0 21 6 47 14 58 14 18 15
18 25 -9 6 -15 14 -39 17 -53 7 -26 42 -48 56 -35 4 4 -6 42 -22 85 l-29 79
25 32 c30 40 30 45 -1 45 -17 0 -32 -10 -47 -35 -13 -19 -26 -35 -30 -35 -5 0
-8 32 -8 70 0 68 -1 70 -25 70 l-25 0 0 -155z"/>
<path d="M2240 1017 c0 -85 3 -156 6 -159 3 -3 14 -4 25 -1 18 5 19 15 19 159
l0 154 -25 0 -25 0 0 -153z"/>
<path d="M2340 1135 c0 -24 -5 -35 -15 -35 -8 0 -15 -9 -15 -20 0 -11 7 -20
15 -20 12 0 15 -16 15 -88 0 -96 12 -122 59 -122 31 0 40 30 13 48 -19 13 -22
24 -22 88 0 67 2 74 20 74 13 0 20 7 20 20 0 13 -7 20 -20 20 -16 0 -20 7 -20
35 0 31 -3 35 -25 35 -22 0 -25 -4 -25 -35z"/>
<path d="M2540 1129 c0 -35 -2 -40 -17 -34 -25 11 -52 8 -69 -6 -21 -17 -20
-202 2 -223 18 -19 38 -20 67 -5 14 8 22 8 25 1 1 -5 12 -8 22 -5 19 5 20 15
20 159 l0 154 -25 0 c-23 0 -25 -4 -25 -41z"/>
<path d="M1134 1102 c-35 -5 -53 -34 -60 -92 -12 -103 20 -160 90 -160 28 0
66 39 66 68 0 17 -6 22 -25 22 -18 0 -25 -5 -25 -19 0 -10 -6 -21 -12 -23 -25
-9 -38 4 -38 38 l0 34 50 0 c53 0 53 0 50 60 -3 55 -37 81 -96 72z"/>
<path d="M1313 1102 c-39 -6 -53 -39 -53 -125 0 -69 3 -81 25 -102 39 -40 96
-32 120 16 21 39 19 49 -10 49 -18 0 -28 -7 -35 -25 -5 -14 -14 -25 -19 -25
-22 0 -32 32 -29 97 3 61 5 68 25 71 16 2 22 -3 25 -20 2 -17 11 -24 32 -26
27 -3 28 -2 22 25 -13 52 -48 73 -103 65z"/>
<path d="M1674 1102 c-35 -5 -57 -38 -62 -91 -9 -100 19 -161 77 -161 15 0 40
9 55 21 24 19 26 26 26 103 0 109 -22 139 -96 128z"/>
<path d="M2137 1095 c-15 -8 -29 -10 -32 -4 -4 5 -15 9 -26 9 -18 0 -19 -8
-19 -120 0 -100 3 -120 15 -120 8 0 18 0 23 0 4 0 9 44 12 97 5 90 7 98 25 98
18 0 20 -8 23 -96 2 -88 5 -97 23 -102 28 -7 30 4 27 122 -3 91 -5 105 -23
117 -17 11 -25 11 -48 -1z"/>
<path d="M1870 991 c0 -86 3 -113 16 -125 18 -18 38 -20 64 -6 10 6 21 6 24 1
3 -4 16 -6 28 -4 23 4 23 6 20 124 -3 119 -3 119 -28 119 -24 0 -24 -1 -24
-99 0 -81 -3 -100 -16 -105 -29 -11 -34 4 -34 105 0 99 0 99 -25 99 l-25 0 0
-109z"/>
</g>
</svg>
