<?xml version="1.0" standalone="no"?>
<!DOCTYPE svg PUBLIC "-//W3C//DTD SVG 20010904//EN"
 "http://www.w3.org/TR/2001/REC-SVG-20010904/DTD/svg10.dtd">
<svg version="1.0" xmlns="http://www.w3.org/2000/svg"
 width="1600.000000pt" height="534.000000pt" viewBox="0 0 1600.000000 534.000000"
 preserveAspectRatio="xMidYMid meet">
<metadata>
Created by potrace 1.16, written by Peter Selinger 2001-2019
</metadata>
<g transform="translate(0.000000,534.000000) scale(0.100000,-0.100000)"
fill="#000000" stroke="none">
<path d="M1290 2680 l0 -1140 1660 0 1660 0 0 1140 0 1140 -1660 0 -1660 0 0
-1140z m1638 681 c2 -101 -1 -136 -10 -143 -7 -4 -146 -8 -309 -8 -241 0 -305
-3 -350 -16 -187 -55 -324 -207 -365 -406 -8 -40 -20 -78 -26 -85 -12 -15
-234 -18 -257 -4 -12 8 -12 24 -2 102 34 266 187 488 421 608 162 83 201 89
580 87 l315 -1 3 -134z m732 124 c337 -71 582 -339 631 -690 10 -73 10 -88 -2
-96 -23 -14 -245 -11 -257 4 -5 6 -19 49 -30 95 -52 205 -176 341 -361 396
-45 13 -107 16 -347 16 -161 0 -299 3 -308 6 -14 5 -16 28 -16 145 l0 139 309
0 c237 0 326 -4 381 -15z m-713 -406 c112 -43 161 -48 239 -24 78 25 220 31
284 12 65 -19 189 -98 267 -171 55 -51 57 -54 61 -113 4 -53 0 -72 -28 -135
-18 -40 -36 -81 -41 -90 -5 -10 -9 -42 -9 -72 0 -30 -5 -58 -10 -61 -6 -4 -9
-30 -8 -58 3 -48 1 -52 -26 -66 -50 -24 -108 -26 -135 -4 l-24 19 24 41 23 41
-23 78 c-34 116 -23 107 -142 108 -92 0 -109 -3 -149 -25 -37 -19 -59 -24
-120 -23 -41 0 -91 4 -111 8 l-36 8 -37 -78 c-21 -43 -40 -93 -43 -111 -8 -48
-34 -60 -116 -55 -49 3 -70 8 -74 19 -3 8 9 44 26 78 25 48 33 76 33 114 -1
72 -12 86 -89 109 l-67 21 -49 -52 c-46 -48 -53 -52 -97 -52 -36 0 -60 -8
-101 -34 -42 -26 -70 -35 -129 -42 -54 -6 -94 -18 -146 -44 -96 -49 -124 -34
-110 58 5 32 1 52 -14 82 -23 44 -25 78 -9 124 14 41 41 40 60 -1 8 -18 22
-35 32 -36 27 -5 75 45 89 93 7 22 24 54 39 72 15 17 30 49 33 70 4 21 15 49
25 62 17 22 22 23 47 13 53 -20 95 -9 173 42 117 78 275 131 356 118 17 -2 76
-22 132 -43z m923 -301 c39 -42 59 -83 65 -133 5 -46 3 -53 -24 -81 -16 -18
-37 -35 -47 -38 -24 -7 -77 7 -82 22 -2 7 19 35 47 64 60 61 63 83 21 131 -16
19 -30 40 -30 46 0 19 28 12 50 -11z m-2002 -130 c5 -7 17 -47 27 -88 45 -203
186 -357 369 -406 37 -10 127 -14 336 -14 157 0 295 -3 308 -6 22 -6 23 -8 20
-143 l-3 -136 -340 0 -340 0 -95 33 c-129 45 -220 102 -315 197 -129 129 -202
280 -227 466 -10 77 -10 92 3 100 22 14 245 11 257 -3z m2422 -3 c11 -13 10
-34 -3 -115 -31 -186 -103 -327 -232 -455 -86 -84 -186 -145 -309 -188 l-91
-32 -342 -3 -343 -3 0 139 c0 118 2 141 16 146 9 3 147 6 308 6 238 0 302 3
347 16 185 54 309 191 361 398 11 44 25 87 30 94 16 19 242 17 258 -3z m-808
-98 c15 -24 -5 -73 -43 -105 -25 -22 -39 -42 -39 -57 0 -34 -33 -49 -92 -41
-89 12 -99 28 -48 76 24 22 30 36 30 70 0 76 9 82 103 74 45 -4 85 -12 89 -17z"/>
<path d="M5090 3664 c0 -20 12 -74 26 -121 14 -46 23 -87 21 -90 -3 -3 -27 12
-54 32 -48 37 -104 65 -129 65 -7 0 -23 -21 -35 -47 -12 -27 -25 -56 -30 -65
-13 -23 34 -43 141 -59 44 -7 80 -15 80 -19 0 -3 -27 -19 -61 -35 -35 -17 -73
-45 -90 -66 l-28 -36 60 -47 c70 -55 59 -61 136 71 26 46 50 79 54 75 4 -4 26
-41 48 -83 23 -42 50 -84 60 -93 18 -16 21 -15 67 25 27 23 50 46 52 50 7 16
-39 63 -106 108 l-67 46 95 6 c101 7 130 14 130 33 0 24 -42 136 -51 136 -20
0 -81 -30 -139 -70 -34 -23 -63 -40 -65 -38 -1 1 8 39 21 82 13 44 24 102 24
128 l0 48 -80 0 -80 0 0 -36z"/>
<path d="M7560 2793 l0 -908 145 3 145 3 0 241 0 241 67 100 c37 54 70 100 74
103 3 2 41 -99 84 -224 42 -125 95 -280 117 -344 l40 -117 129 -3 c71 -2 137
-1 148 2 18 5 5 45 -150 483 l-169 478 146 212 c81 117 149 218 151 225 4 9
-30 12 -150 12 l-155 0 -164 -252 -163 -252 -3 452 -2 452 -145 0 -145 0 0
-907z"/>
<path d="M8650 3575 l0 -125 368 2 367 3 3 123 3 122 -371 0 -370 0 0 -125z"/>
<path d="M12210 2793 l0 -908 145 3 145 3 0 905 0 904 -145 0 -145 0 0 -907z"/>
<path d="M12780 3500 l0 -200 -85 0 -85 0 0 -120 0 -119 83 -3 82 -3 5 -500 5
-500 30 -54 c34 -61 89 -103 169 -126 51 -15 198 -20 255 -9 l32 7 -3 126 -3
126 -72 3 c-66 3 -74 5 -97 33 l-26 31 0 434 0 434 100 0 100 0 0 120 0 120
-100 0 -100 0 0 200 0 200 -145 0 -145 0 0 -200z"/>
<path d="M13950 3445 c0 -140 -3 -255 -7 -255 -3 0 -30 18 -59 40 -93 70 -130
85 -225 88 -72 3 -95 0 -138 -18 -90 -39 -152 -134 -171 -265 -12 -89 -13
-798 0 -887 20 -138 91 -240 190 -273 39 -13 73 -16 134 -13 101 6 160 34 234
111 28 31 53 53 54 49 0 -4 2 -11 3 -17 2 -5 3 -35 4 -65 l1 -55 135 3 135 3
0 905 0 904 -145 0 -145 0 0 -255z m-103 -377 c15 -7 45 -23 66 -37 l37 -24 0
-416 0 -416 -33 -22 c-124 -85 -234 -62 -266 54 -15 52 -15 715 0 768 6 21 26
54 44 72 28 28 40 33 79 33 25 0 58 -5 73 -12z"/>
<path d="M14463 3679 c-55 -27 -83 -72 -83 -134 0 -62 28 -108 84 -134 55 -27
111 -27 166 2 114 57 112 210 -4 266 -54 27 -110 27 -163 0z m144 -18 c126
-58 83 -245 -57 -245 -87 1 -140 51 -140 133 0 65 66 127 140 130 8 0 34 -8
57 -18z"/>
<path d="M14484 3626 c-10 -27 1 -169 14 -174 8 -2 12 9 12 37 0 54 25 55 62
1 28 -40 48 -51 48 -27 0 6 -9 23 -20 37 -24 30 -25 40 -5 40 19 0 38 36 30
60 -7 22 -32 32 -93 35 -27 2 -45 -2 -48 -9z"/>
<path d="M5704 3299 c-121 -42 -205 -131 -247 -263 -21 -68 -22 -85 -22 -451
0 -361 1 -383 22 -442 64 -188 182 -271 398 -281 168 -7 274 27 361 116 66 67
123 224 124 340 l0 42 -144 0 -143 0 -7 -69 c-12 -124 -69 -191 -161 -191 -59
0 -106 28 -135 80 -24 43 -25 53 -25 200 l0 155 308 3 307 2 0 183 c0 204 -13
284 -59 383 -37 80 -96 138 -179 177 -63 30 -75 32 -202 34 -116 3 -144 0
-196 -18z m264 -239 c46 -28 72 -91 79 -195 l6 -85 -168 0 -168 0 5 89 c6 104
27 155 77 188 45 30 122 31 169 3z"/>
<path d="M6768 3301 c-137 -44 -218 -136 -265 -302 -16 -56 -18 -106 -18 -409
0 -303 2 -353 18 -409 63 -222 199 -321 442 -321 274 0 421 141 451 432 l7 67
-146 3 -146 3 -6 -67 c-9 -83 -39 -145 -85 -176 -29 -20 -45 -23 -88 -20 -63
6 -99 29 -127 84 -19 37 -20 59 -20 409 0 355 1 371 21 405 30 51 78 80 133
80 60 0 110 -27 133 -72 20 -38 38 -129 38 -190 l0 -38 145 0 145 0 0 53 c-2
244 -116 423 -302 473 -77 20 -259 18 -330 -5z"/>
<path d="M8858 3306 c-97 -28 -192 -105 -237 -193 -51 -102 -56 -144 -56 -518
0 -372 3 -404 51 -512 12 -29 43 -74 68 -101 79 -85 182 -122 337 -122 239 0
380 106 436 327 26 100 26 706 0 805 -25 101 -55 157 -117 219 -81 82 -139
102 -305 105 -87 2 -146 -1 -177 -10z m242 -249 c19 -12 43 -38 54 -57 20 -34
21 -50 21 -405 0 -350 -1 -372 -20 -409 -31 -61 -65 -81 -140 -81 -59 0 -67 3
-98 33 -56 55 -60 79 -58 457 1 338 5 381 38 431 35 55 144 71 203 31z"/>
<path d="M11628 3307 c-54 -21 -117 -60 -170 -107 -27 -23 -49 -40 -49 -38 -1
1 -3 32 -4 68 l-3 65 -136 3 -136 3 0 -706 c0 -557 3 -705 13 -705 6 0 72 -2
145 -3 l132 -2 0 552 0 552 33 25 c108 82 221 87 252 11 13 -29 15 -126 15
-585 l0 -550 145 0 146 0 -3 623 -3 623 -30 59 c-20 40 -45 69 -73 90 -40 28
-51 30 -140 33 -63 1 -110 -3 -134 -11z"/>
<path d="M10050 2697 c0 -654 1 -669 55 -747 18 -25 47 -49 81 -66 49 -24 63
-26 142 -22 105 5 169 32 263 110 l59 49 0 -66 0 -65 113 -1 c61 0 124 -2 140
-3 l27 -2 0 708 0 708 -145 0 -145 0 0 -555 0 -554 -45 -31 c-88 -60 -149 -74
-205 -45 -20 10 -32 27 -40 53 -6 24 -10 231 -10 582 l1 545 -146 3 -145 3 0
-604z"/>
<path d="M14370 2010 l0 -120 125 0 125 0 0 120 0 120 -125 0 -125 0 0 -120z"/>
</g>
</svg>
