<?xml version="1.0" standalone="no"?>
<!DOCTYPE svg PUBLIC "-//W3C//DTD SVG 20010904//EN"
 "http://www.w3.org/TR/2001/REC-SVG-20010904/DTD/svg10.dtd">
<svg version="1.0" xmlns="http://www.w3.org/2000/svg"
 width="933.000000pt" height="368.000000pt" viewBox="0 0 933.000000 368.000000"
 preserveAspectRatio="xMidYMid meet">
<metadata>
Created by potrace 1.16, written by Peter Selinger 2001-2019
</metadata>
<g transform="translate(0.000000,368.000000) scale(0.100000,-0.100000)"
fill="#000000" stroke="none">
<path d="M5250 3472 c-98 -205 -186 -358 -322 -560 -278 -413 -552 -757 -870
-1094 -109 -116 -125 -137 -101 -132 15 3 127 20 247 38 251 38 217 19 330
181 184 262 453 790 611 1201 64 166 187 515 183 519 -2 2 -37 -67 -78 -153z"/>
<path d="M5117 2880 c-50 -254 -185 -560 -344 -783 -72 -100 -233 -262 -338
-342 -44 -32 -84 -62 -89 -66 -17 -14 375 89 399 105 41 27 138 165 198 283
89 176 138 335 171 563 16 106 32 330 25 330 -2 0 -12 -40 -22 -90z"/>
<path d="M7021 1300 c-155 -22 -285 -84 -387 -185 -117 -115 -174 -267 -174
-460 0 -329 182 -561 495 -631 109 -25 329 -25 440 0 103 23 226 82 293 142
47 41 152 175 152 194 0 6 -44 29 -107 56 -31 14 -31 14 -58 -32 -39 -67 -129
-150 -198 -184 -95 -46 -169 -61 -292 -62 -285 0 -476 116 -547 335 -27 81
-28 243 -4 337 63 236 255 369 533 370 229 0 410 -86 495 -237 l30 -53 39 21
c22 11 51 24 65 29 l24 10 -26 52 c-62 123 -217 234 -390 278 -91 24 -284 34
-383 20z"/>
<path d="M0 655 l0 -625 75 0 75 0 2 552 3 552 495 -552 495 -552 72 0 73 0 0
625 0 625 -75 0 -75 0 -2 -507 -3 -507 -459 507 -459 507 -109 0 -108 0 0
-625z"/>
<path d="M1817 662 c-174 -340 -317 -622 -317 -626 0 -4 37 -6 83 -4 l82 3 80
157 80 158 402 0 403 0 80 -160 80 -160 85 0 c47 0 85 1 85 3 0 1 -144 281
-319 622 l-320 620 -94 3 -94 3 -316 -619z m573 168 c88 -176 160 -324 160
-330 0 -6 -114 -10 -325 -10 -179 0 -325 2 -325 5 0 7 324 655 327 655 2 0 75
-144 163 -320z"/>
<path d="M3042 838 c4 -425 5 -445 25 -500 86 -229 277 -332 613 -332 292 0
475 79 574 247 62 104 66 146 66 611 l0 416 -74 0 -75 0 -3 -422 c-3 -411 -4
-425 -26 -478 -46 -115 -115 -179 -240 -222 -59 -20 -86 -23 -222 -23 -174 0
-226 11 -320 67 -60 37 -121 109 -147 178 -15 40 -18 96 -21 473 l-3 427 -75
0 -75 0 3 -442z"/>
<path d="M4530 1215 l0 -65 288 -2 287 -3 3 -557 2 -558 75 0 75 0 0 560 0
560 290 0 290 0 0 65 0 65 -655 0 -655 0 0 -65z"/>
<path d="M6060 655 l0 -625 75 0 75 0 0 625 0 625 -75 0 -75 0 0 -625z"/>
<path d="M8417 1118 c-87 -167 -469 -913 -526 -1026 l-31 -62 85 0 85 0 80
160 80 160 403 0 402 0 80 -160 80 -160 83 0 c66 0 83 3 80 14 -2 8 -145 289
-318 625 l-315 611 -92 0 -92 0 -84 -162z m502 -620 c1 -5 -148 -8 -329 -8
l-330 0 166 332 166 333 164 -325 c89 -179 163 -328 163 -332z"/>
</g>
</svg>
