<?xml version="1.0" standalone="no"?>
<!DOCTYPE svg PUBLIC "-//W3C//DTD SVG 20010904//EN"
 "http://www.w3.org/TR/2001/REC-SVG-20010904/DTD/svg10.dtd">
<svg version="1.0" xmlns="http://www.w3.org/2000/svg"
  viewBox="0 0 580.000000 200.000000"
 preserveAspectRatio="xMidYMid meet">

<g transform="translate(0.000000,200.000000) scale(0.100000,-0.100000)"
fill="#000000" stroke="none">
<path d="M1466 1355 c-59 -137 -266 -422 -430 -593 l-81 -85 65 7 c36 4 76 10
89 13 18 4 22 3 16 -7 -8 -13 27 -10 107 11 92 24 173 195 185 389 5 77 14
115 45 199 45 119 47 166 4 66z"/>
<path d="M1640 930 l0 -210 25 0 25 0 2 180 3 180 163 -180 c141 -156 167
-180 192 -180 l30 0 0 210 0 210 -30 0 -30 0 -2 -161 -3 -161 -145 160 c-143
158 -146 161 -187 161 l-43 1 0 -210z"/>
<path d="M2266 936 c-58 -112 -106 -207 -106 -210 0 -3 15 -6 33 -6 30 0 36 5
57 50 l23 50 137 0 137 0 23 -50 c21 -45 27 -50 57 -50 18 0 33 3 33 6 0 3
-48 98 -106 210 l-105 204 -39 0 -38 0 -106 -204z m197 49 c26 -52 47 -97 47
-100 0 -3 -45 -5 -100 -5 -55 0 -100 2 -100 5 0 10 95 195 100 195 3 0 27 -43
53 -95z"/>
<path d="M2662 973 c3 -159 4 -170 27 -202 36 -51 90 -71 191 -71 101 0 155
20 191 71 23 32 24 43 27 202 l3 167 -30 0 -31 0 0 -147 c0 -160 -6 -182 -53
-217 -41 -30 -173 -30 -214 0 -47 35 -53 57 -53 217 l0 147 -31 0 -30 0 3
-167z"/>
<path d="M3180 1115 l0 -25 100 0 100 0 0 -185 0 -185 30 0 30 0 0 185 0 185
100 0 100 0 0 25 0 25 -230 0 -230 0 0 -25z"/>
<path d="M3720 930 c0 -203 1 -210 20 -210 19 0 20 7 20 210 0 203 -1 210 -20
210 -19 0 -20 -7 -20 -210z"/>
<path d="M3970 1127 c-49 -16 -107 -78 -121 -129 -6 -24 -9 -75 -7 -115 9
-136 87 -203 238 -203 90 0 141 20 188 74 37 43 40 62 11 71 -16 5 -30 -2 -60
-34 -81 -84 -226 -78 -293 12 -30 41 -31 173 0 213 35 48 68 65 131 71 75 7
144 -20 171 -66 19 -34 30 -37 55 -18 16 11 16 14 -3 44 -10 18 -38 45 -61 60
-37 25 -53 28 -128 30 -47 1 -102 -3 -121 -10z"/>
<path d="M4426 936 c-58 -112 -106 -207 -106 -210 0 -3 15 -6 33 -6 30 0 36 5
57 50 l23 50 137 0 137 0 23 -50 c21 -45 27 -50 57 -50 18 0 33 3 33 6 0 3
-48 98 -106 210 l-105 204 -39 0 -38 0 -106 -204z m197 49 c26 -52 47 -97 47
-100 0 -3 -45 -5 -100 -5 -55 0 -100 2 -100 5 0 10 95 195 100 195 3 0 27 -43
53 -95z"/>
</g>
</svg>
