<?xml version="1.0" standalone="no"?>
<!DOCTYPE svg PUBLIC "-//W3C//DTD SVG 20010904//EN"
 "http://www.w3.org/TR/2001/REC-SVG-20010904/DTD/svg10.dtd">
<svg version="1.0" xmlns="http://www.w3.org/2000/svg"
 width="300.000000pt" height="145.000000pt" viewBox="0 0 300.000000 145.000000"
 preserveAspectRatio="xMidYMid meet">
<metadata>
Created by potrace 1.16, written by Peter Selinger 2001-2019
</metadata>
<g transform="translate(0.000000,145.000000) scale(0.100000,-0.100000)"
fill="#000000" stroke="none">
<path d="M2134 1429 c-54 -15 -126 -73 -165 -130 -88 -130 -236 -543 -306
-853 -16 -76 -34 -129 -46 -143 -11 -13 -59 -43 -108 -68 -96 -49 -156 -58
-198 -29 -75 53 -65 229 20 370 57 93 149 118 181 49 15 -33 6 -40 -26 -20
-30 20 -58 13 -86 -22 -61 -78 34 -157 135 -111 65 29 94 162 51 235 -50 83
-177 103 -298 46 -150 -70 -242 -208 -263 -390 -8 -73 -45 -131 -100 -158
-100 -47 -127 29 -84 238 25 125 59 260 155 619 41 152 74 285 74 296 0 76
-176 83 -225 9 -17 -27 -71 -222 -161 -585 -86 -351 -131 -475 -197 -542 -51
-52 -115 -53 -142 0 -31 59 -17 139 88 510 41 146 80 297 86 335 20 121 -13
226 -92 289 -34 27 -47 31 -115 34 -102 5 -174 -21 -230 -82 -63 -68 -90 -183
-57 -245 33 -65 95 -36 95 44 0 115 82 183 145 120 42 -41 35 -125 -26 -335
-164 -570 -179 -745 -69 -844 68 -61 166 -71 267 -26 60 26 78 43 121 109 l35
54 14 -44 c34 -100 92 -144 182 -137 73 5 141 40 207 106 l53 53 20 -39 c81
-159 308 -163 507 -10 l61 46 12 -37 c38 -130 172 -163 339 -84 31 15 79 47
106 72 45 43 50 45 60 27 64 -107 108 -139 183 -133 65 5 125 42 161 102 15
25 30 45 33 45 4 0 9 -18 12 -40 7 -54 31 -89 75 -107 47 -20 99 -11 176 30
70 37 184 139 192 173 18 70 -36 84 -112 29 -77 -55 -112 -71 -132 -59 -34 22
-25 67 58 279 45 115 84 222 87 239 17 109 -158 101 -215 -10 l-18 -36 -27 39
c-37 53 -92 83 -153 83 -154 0 -333 -210 -359 -422 -6 -51 -12 -62 -50 -97
-82 -75 -164 -101 -199 -62 -26 29 -30 81 -11 172 18 94 15 88 109 195 134
154 310 446 362 599 9 28 18 79 21 115 3 53 1 71 -16 97 -30 47 -116 66 -197
42z m134 -178 c7 -71 -80 -242 -216 -428 -54 -73 -78 -99 -80 -86 -9 57 162
460 221 521 41 43 71 40 75 -7z m291 -591 c27 -14 44 -65 38 -108 -9 -51 -101
-276 -127 -309 -58 -75 -130 -68 -146 14 -3 17 1 66 10 109 27 132 89 242 161
285 35 22 40 22 64 9z"/>
</g>
</svg>
